<?xml version="1.0" standalone="no"?><!DOCTYPE svg PUBLIC "-//W3C//DTD SVG 1.1//EN" "http://www.w3.org/Graphics/SVG/1.1/DTD/svg11.dtd"><svg t="1649173508837" class="icon" viewBox="0 0 1024 1024" version="1.1" xmlns="http://www.w3.org/2000/svg" p-id="7419" xmlns:xlink="http://www.w3.org/1999/xlink" width="256" height="256"><defs><style type="text/css"></style></defs><path d="M716.8 236.8L556.8 83.2c-25.6-25.6-64-25.6-89.6 0l-384 384c-25.6 25.6-25.6 64 0 89.6l25.6 25.6c6.4 6.4 19.2 12.8 25.6 6.4C230.4 544 313.6 473.6 384 352c6.4-12.8 32-6.4 32 12.8-19.2 140.8-89.6 262.4-160 345.6-6.4 6.4-6.4 19.2 0 25.6 6.4 6.4 12.8 6.4 19.2 0 179.2-115.2 332.8-275.2 441.6-499.2zM940.8 467.2l-166.4-166.4C736 531.2 627.2 729.6 448 896c-6.4 6.4-6.4 19.2 0 25.6l19.2 19.2c25.6 25.6 64 25.6 89.6 0l384-384c25.6-25.6 25.6-64 0-89.6zM793.6 134.4c0-19.2-25.6-25.6-32-6.4-12.8 38.4-32 76.8-44.8 115.2l64 64c6.4-57.6 12.8-115.2 12.8-172.8z" fill="#878787" p-id="7420" data-spm-anchor-id="a313x.7781069.0.i8" class="selected"></path></svg>